<svg version="1.2" xmlns="http://www.w3.org/2000/svg" viewBox="0 0 1000 1000" width="1000" height="1000">
	<title>IDriss_Brandmark_V2</title>
	<style>
		.s0 { fill: #11dd74 } 
	</style>
	<path id="Shape 5" class="s0" d="m816.4 821.3c-40.5 70.1-115.3 113.3-196.3 113.3h-240.3c-81 0-155.8-43.2-196.3-113.3l-120.2-208.2c-40.4-70.1-40.4-156.5 0-226.6l120.2-208.2c40.5-70.1 115.3-113.3 196.3-113.3h240.3c81 0 155.8 43.2 196.3 113.3l120.2 208.2c40.5 70.1 40.5 156.5 0 226.6z" />
	<path id="ID " fill="#000000" aria-label="ID "  d="m256.49 682h103.3v-365.23h-103.3zm176.87 0h172.7c121.05 0 204.01-70.43 204.01-182.61c0-112.18-82.96-182.61-204.01-182.61h-172.7zm103.31-82.44v-200.35h65.22c62.08 0 103.82 37.04 103.82 100.17c0 63.13-41.74 100.18-103.82 100.18z" />
</svg>