<svg version="1.2" xmlns="http://www.w3.org/2000/svg" viewBox="0 0 1600 900" width="1600" height="900">
	<title>IDriss_Logo</title>
	<style>
		.s0 { fill: #11dd74 } 
		.s1 { fill: #ffffff } 
		.s2 { fill: #000000 } 
	</style>
	<path id="Shape 5" class="s0" d="m796.4 771.3c-40.5 70.1-115.3 113.3-196.3 113.3h-240.3c-81 0-155.8-43.2-196.3-113.3l-120.2-208.2c-40.4-70.1-40.4-156.5 0-226.6l120.2-208.2c40.5-70.1 115.3-113.3 196.3-113.3h240.3c81 0 155.8 43.2 196.3 113.3l120.2 208.2c40.5 70.1 40.5 156.5 0 226.6z"/>
	<path id="      riss" class="s1" aria-label="      riss"  d=""/>
	<path id="      riss" class="s2" aria-label="      riss"  d="m1039.8 378.9v-22.4h-62.2v186.5h65.3v-85.7c0-32.6 18.3-46.1 44.7-46.1 4.9 0 9 0.4 14.8 1.1v-58.9c-27.5 0-49.2 8.6-62.6 25.5zm122.2-43c24 0 39.9-15.1 39.9-35.8 0-19.6-15.9-33.7-39.9-33.7-24.1 0-40 15.1-40 34.7 0 19.7 15.9 34.8 40 34.8zm-32.7 207.1h65.3v-186.5h-65.3zm175.4 3.1c60.6 0 92.2-26.8 92.2-61.2 0-74-109.7-46.1-109.7-71.9 0-6.9 7.9-13.1 29.9-13.1 16.5 0 35.1 3.5 53.7 13.8l19.6-44.4c-18.6-10.3-47.5-15.8-73.6-15.8-58.5 0-90.9 26.8-90.9 61.9 0 74.6 110.1 46.1 110.1 71.2 0 7.9-7.2 12.7-29.2 12.7-22.7 0-47.8-6.5-65-17.2l-19.6 44.8c18.2 11.3 50.9 19.2 82.5 19.2zm188.2 0c60.6 0 92.2-26.8 92.2-61.2 0-74-109.7-46.1-109.7-71.9 0-6.9 7.9-13.1 29.9-13.1 16.5 0 35.1 3.5 53.7 13.8l19.6-44.4c-18.6-10.3-47.5-15.8-73.6-15.8-58.5 0-90.9 26.8-90.9 61.9 0 74.6 110.1 46.1 110.1 71.2 0 7.9-7.2 12.7-29.2 12.7-22.7 0-47.8-6.5-65-17.2l-19.6 44.8c18.2 11.3 50.9 19.2 82.5 19.2z"/>
	<path id="ID " class="s2" aria-label="ID "  d="m236.5 632h103.3v-365.2h-103.3zm176.9 0h172.7c121 0 204-70.5 204-182.6 0-112.2-83-182.7-204-182.7h-172.7zm103.3-82.4v-200.3h65.2c62.1 0 103.8 37 103.8 100.1 0 63.2-41.7 100.2-103.8 100.2z"/>
</svg>